<svg xmlns="http://www.w3.org/2000/svg" viewBox="0 0 1280 640" width="1280" height="640" role="img" aria-label="agentflow — gate the flow, prove the work">
  <defs>
    <radialGradient id="glow" cx="82%" cy="16%" r="60%">
      <stop offset="0%" stop-color="#00D4AA" stop-opacity="0.16"/>
      <stop offset="60%" stop-color="#00D4AA" stop-opacity="0"/>
    </radialGradient>
  </defs>
  <rect width="1280" height="640" fill="#0B1120"/>
  <rect width="1280" height="640" fill="url(#glow)"/>
  <!-- gate mark -->
  <g transform="translate(80,74) scale(1.25)">
    <g stroke="#94A3B8" stroke-width="9" stroke-linecap="round"><path d="M18 40 L57 40"/><path d="M18 64 L57 64"/><path d="M18 88 L57 88"/></g>
    <rect x="58" y="22" width="12" height="84" rx="6" fill="#00D4AA"/>
    <g stroke="#00D4AA" stroke-width="9" stroke-linecap="round"><path d="M71 40 L88 40"/><path d="M71 64 L88 64"/><path d="M71 88 L88 88"/></g>
    <g fill="#00D4AA"><path d="M86 32 L106 40 L86 48 Z"/><path d="M86 56 L106 64 L86 72 Z"/><path d="M86 80 L106 88 L86 96 Z"/></g>
  </g>
  <!-- wordmark (outline text before shipping) -->
  <text x="330" y="188" font-family="Archivo, ui-sans-serif, system-ui, sans-serif" font-weight="800" font-size="104" letter-spacing="-3">
    <tspan fill="#F1F5F9">agent</tspan><tspan fill="#00D4AA">flow</tspan>
  </text>
  <!-- tagline -->
  <text x="82" y="392" font-family="Archivo, ui-sans-serif, system-ui, sans-serif" font-weight="800" font-size="72" letter-spacing="-1.5">
    <tspan fill="#F1F5F9">Gate the flow. </tspan><tspan fill="#00D4AA">Prove the work.</tspan>
  </text>
  <text x="82" y="452" font-family="Archivo, ui-sans-serif, system-ui, sans-serif" font-weight="500" font-size="30" fill="#CBD5E1">A local protocol for accountable agent work.</text>
  <!-- footer -->
  <line x1="82" y1="540" x2="1198" y2="540" stroke="#374151" stroke-width="1"/>
  <text x="82" y="582" font-family="'Martian Mono', ui-monospace, monospace" font-size="24" fill="#94A3B8">github.com/kstruzzieri/agentflow</text>
  <text x="1198" y="582" text-anchor="end" font-family="'Martian Mono', ui-monospace, monospace" font-size="24" fill="#94A3B8">plan · gate · proof · CLI + MCP</text>
</svg>
